Coordinates
version=1
nRows=6
nColumns=36
inDegrees=yes

Units are S.I. units (second, meters, Newtons, ...)
If the header above contains a line with 'inDegrees', this indicates whether rotational values are in degrees (yes) or radians (no).

endheader
time	pelvis_tilt	pelvis_list	pelvis_rotation	pelvis_tx	pelvis_ty	pelvis_tz	hip_flexion_r	hip_adduction_r	hip_rotation_r	knee_angle_r	knee_angle_r_beta	ankle_angle_r	subtalar_angle_r	mtp_angle_r	hip_flexion_l	hip_adduction_l	hip_rotation_l	knee_angle_l	knee_angle_l_beta	ankle_angle_l	subtalar_angle_l	mtp_angle_l	lumbar_extension	lumbar_bending	lumbar_rotation	arm_flex_r	arm_add_r	arm_rot_r	elbow_flex_r	pro_sup_r	arm_flex_l	arm_add_l	arm_rot_l	elbow_flex_l	pro_sup_l
      0.07000000	     -2.76721966	     -6.29766384	      4.08459381	      0.06323299	      1.11043639	     -0.17097825	     24.47000830	     11.65406309	     -3.47120920	     19.38971335	      0.33841434	     -3.02821272	    -15.39327812	     -7.49999987	     -1.33572072	     -5.24464789	      1.45360949	     48.91020193	      0.85364406	     -9.11492893	    -21.12827217	     -7.49999987	     -4.29040682	     11.72929894	     -5.10311087	    -11.13578340	     -5.32857126	    -15.42450733	     33.28485587	     94.60197720	     -5.79282837	     -1.41521804	    -16.04104625	     30.23411414	     99.03976271
      0.08000000	     -2.57695357	     -6.13718101	      4.11958291	      0.07452191	      1.11364426	     -0.17004714	     23.39304980	     11.64230585	     -3.52372866	     18.91691327	      0.33016242	     -2.81018968	    -15.71578198	     -7.49999987	      0.41778071	     -4.88783894	      1.96969413	     51.59109126	      0.90043441	    -10.95130441	    -21.35922901	     -7.49999987	     -4.65972447	     11.66986043	     -4.82979646	    -10.80992404	     -5.47289161	    -14.72622017	     33.18056321	     93.46649676	     -5.83811811	     -1.50006524	    -15.38245709	     30.01211609	     97.74624030
      0.09000000	     -2.45626184	     -5.93111740	      4.12791330	      0.08585000	      1.11651572	     -0.16899115	     22.37360076	     11.57280093	     -3.62746776	     18.43674408	      0.32178189	     -2.38649648	    -15.61555074	     -7.49999987	      2.24340062	     -4.46921468	      2.41510944	     54.03513891	      0.94309109	    -12.47015234	    -21.37533545	     -7.49999987	     -4.94473293	     11.55081140	     -4.49666886	    -10.46728552	     -5.37244693	    -15.59876006	     33.06471210	     96.63195447	     -5.82360803	     -1.39734175	    -16.16459249	     29.82099606	    100.73624422
      0.10000000	     -2.18625349	     -5.67581497	      4.11140536	      0.09706825	      1.11925400	     -0.16755370	     21.16059131	     11.50234615	     -3.60726769	     17.90886990	      0.31256875	     -1.96086532	    -15.43478026	     -7.49999987	      3.86285184	     -4.04102150	      2.75419450	     56.18426864	      0.98060048	    -13.68315730	    -21.26893962	     -7.49999987	     -5.41358776	     11.36548947	     -4.22866743	     -9.96035374	     -5.45965529	    -15.07896840	     32.75365035	     94.69481614	     -5.78449868	     -1.48404915	    -15.77563793	     29.56247259	     98.69651610
      0.11000000	     -1.97446208	     -5.38361399	      4.08445466	      0.10817278	      1.12143001	     -0.16589256	     20.02246053	     11.37990723	     -3.61769863	     17.42440618	      0.30411326	     -1.44930386	    -15.07395808	     -7.49999987	      5.50594143	     -3.60543675	      3.02186390	     58.07534573	      1.01360600	    -14.54085784	    -21.16992849	     -7.49999987	     -5.84325705	     11.11245891	     -3.99872109	     -9.42980356	     -5.49160327	    -15.09373060	     32.58715315	     96.63083323	     -5.81907330	     -1.50086198	    -16.12155916	     29.58926687	    100.35659442
      0.12000000	     -1.75927705	     -5.11311886	      4.01378878	      0.11919557	      1.12309783	     -0.16388442	     18.86364982	     11.32483129	     -3.44271716	     16.91618210	      0.29524307	     -0.98973612	    -14.85781469	     -7.49999987	      7.08782054	     -3.24998680	      3.19489157	     59.71467762	      1.04221774	    -14.94925951	    -21.03414295	     -7.49999987	     -6.28038550	     10.88321555	     -3.64038849	     -9.00097925	     -5.51392664	    -15.04752096	     32.66512919	     96.22063204	     -5.83026037	     -1.54987834	    -16.10828728	     29.70637199	     99.87535574
